<svg xmlns="http://www.w3.org/2000/svg" width="583.349" height="785" viewBox="0 0 583.349 785"><g transform="translate(-9083.312 -7069)"><rect width="582" height="634" transform="translate(9084 7069)" fill="#011f43"/><path d="M10838.719,7898s-48.265-211.033,18-196.256S10838.719,7898,10838.719,7898Z" transform="translate(-1476.096 -134)" fill="#f7adad"/><path d="M9.345,108.482S-17.233-7.729,19.257.408,9.345,108.482,9.345,108.482Z" transform="matrix(0.259, -0.966, 0.966, 0.259, 9219.783, 7615.265)" fill="#f7adad"/><path d="M9.345,108.482S-17.233-7.729,19.257.408,9.345,108.482,9.345,108.482Z" transform="matrix(0.342, -0.94, 0.94, 0.342, 9155.211, 7542.315)" fill="#f7adad" opacity="0.561"/><path d="M9.345,108.482S-17.233-7.729,19.257.408,9.345,108.482,9.345,108.482Z" transform="matrix(-0.174, -0.985, 0.985, -0.174, 9169.316, 7677.037)" fill="#f7adad" opacity="0.561"/><path d="M9.345,108.482S-17.233-7.729,19.257.408,9.345,108.482,9.345,108.482Z" transform="matrix(0.719, -0.695, 0.695, 0.719, 9220.956, 7432.775)" fill="#f7adad" opacity="0.561"/><path d="M9.345,108.482S-17.233-7.729,19.257.408,9.345,108.482,9.345,108.482Z" transform="translate(9340.062 7358.272) rotate(-9)" fill="#f7adad" opacity="0.561"/><path d="M9.345,108.482S-17.233-7.729,19.257.408,9.345,108.482,9.345,108.482Z" transform="translate(9463.318 7385.648) rotate(21)" fill="#f7adad" opacity="0.561"/><path d="M9.345,108.482S-17.233-7.729,19.257.408,9.345,108.482,9.345,108.482Z" transform="translate(9558.772 7487.323) rotate(53)" fill="#f7adad" opacity="0.561"/><path d="M9.345,108.482S-17.233-7.729,19.257.408,9.345,108.482,9.345,108.482Z" transform="translate(9552.586 7612.803) rotate(87)" fill="#f7adad" opacity="0.561"/><path d="M9.345,108.482S-17.233-7.729,19.257.408,9.345,108.482,9.345,108.482Z" transform="translate(9235.42 7534.522) rotate(-60)" fill="#f7adad"/><path d="M9.345,108.482S-17.233-7.729,19.257.408,9.345,108.482,9.345,108.482Z" transform="translate(9296.83 7453.583) rotate(-30)" fill="#f7adad"/><path d="M9.345,108.482S-17.233-7.729,19.257.408,9.345,108.482,9.345,108.482Z" transform="translate(9387.034 7437.003)" fill="#f7adad"/><path d="M9.345,108.482S-17.233-7.729,19.257.408,9.345,108.482,9.345,108.482Z" transform="matrix(0.766, 0.643, -0.643, 0.766, 9480.683, 7484.007)" fill="#f7adad"/><path d="M9.345,108.482S-17.233-7.729,19.257.408,9.345,108.482,9.345,108.482Z" transform="translate(9512.247 7563.101) rotate(62)" fill="#f7adad"/><path d="M9.345,108.482S-17.233-7.729,19.257.408,9.345,108.482,9.345,108.482Z" transform="translate(9522.104 7654.31) rotate(99)" fill="#f7adad"/><circle cx="15" cy="15" r="15" transform="translate(9364 7583)" fill="#fff"/><circle cx="9" cy="9" r="9" transform="translate(9239 7595)" fill="#fff"/><circle cx="9" cy="9" r="9" transform="matrix(0.996, 0.087, -0.087, 0.996, 9175.556, 7523.289)" fill="#fff" opacity="0.561"/><circle cx="9" cy="9" r="9" transform="translate(9178.277 7653.041) rotate(-25)" fill="#fff" opacity="0.561"/><circle cx="9" cy="9" r="9" transform="translate(9247.101 7422.266) rotate(31)" fill="#fff" opacity="0.561"/><circle cx="9" cy="9" r="9" transform="matrix(0.407, 0.914, -0.914, 0.407, 9365.286, 7362.198)" fill="#fff" opacity="0.561"/><circle cx="9" cy="9" r="9" transform="matrix(-0.105, 0.995, -0.995, -0.105, 9482.3, 7401.014)" fill="#fff" opacity="0.561"/><circle cx="9" cy="9" r="9" transform="translate(9571.371 7507.297) rotate(128)" fill="#fff" opacity="0.561"/><circle cx="9" cy="9" r="9" transform="translate(9546.18 7636.193) rotate(162)" fill="#fff" opacity="0.561"/><circle cx="9" cy="9" r="9" transform="translate(9255 7518)" fill="#fff"/><circle cx="9" cy="9" r="9" transform="translate(9316 7455)" fill="#fff"/><circle cx="9" cy="9" r="9" transform="translate(9395 7444)" fill="#fff"/><circle cx="9" cy="9" r="9" transform="translate(9474 7500)" fill="#fff"/><circle cx="9" cy="9" r="9" transform="translate(9496 7577)" fill="#fff"/><circle cx="9" cy="9" r="9" transform="translate(9494 7659)" fill="#fff"/><rect width="582" height="151" transform="translate(9084 7703)" fill="#fff"/><text transform="translate(9114 7774)" fill="#987a7a" font-size="53" font-family="Luxia-Regular, Luxia"><tspan x="0" y="0">Tata Trusts</tspan></text><text transform="translate(9114 7819)" fill="#a2a2a2" font-size="30" font-family="Luxia-Regular, Luxia"><tspan x="0" y="0">Craft Exchange</tspan></text><path d="M12124,7711.639s145.967-89.1,238.746-8.47,182.728,75.032,182.728,75.032" transform="translate(-3040 -418)" fill="none" stroke="#f7adad" stroke-linecap="round" stroke-width="1"/><path d="M12124,7711.639s145.967-89.1,238.746-8.47,182.728,75.032,182.728,75.032" transform="translate(-3040 -415)" fill="none" stroke="#f7adad" stroke-linecap="round" stroke-width="1"/><path d="M12124,7712.639s145.967-90.1,238.746-9.47,182.728,75.032,182.728,75.032" transform="translate(-3040 -413)" fill="none" stroke="#f7adad" stroke-linecap="round" stroke-width="1"/><path d="M12124,7712.639s145.967-90.1,238.746-9.47,182.728,75.032,182.728,75.032" transform="translate(-3040 -410)" fill="none" stroke="#f7adad" stroke-linecap="round" stroke-width="1"/><path d="M12124,7711.639s145.967-89.1,238.746-8.47,182.728,75.032,182.728,75.032" transform="translate(-3040 -406)" fill="none" stroke="#f7adad" stroke-linecap="round" stroke-width="1"/><path d="M12124,7711.639s145.967-89.1,238.746-8.47,182.728,75.032,182.728,75.032" transform="translate(-3040 -403)" fill="none" stroke="#f7adad" stroke-linecap="round" stroke-width="1"/><g transform="translate(9083.859 7185.406)"><path d="M12706.139,7711.639s-201.609-89.1-329.758-8.47S12124,7778.2,12124,7778.2" transform="translate(-12123.998 -7669.406)" fill="none" stroke="#ffd1d1" stroke-linecap="round" stroke-width="1"/><path d="M12706.139,7711.639s-201.609-89.1-329.758-8.47S12124,7778.2,12124,7778.2" transform="translate(-12123.998 -7666.406)" fill="none" stroke="#ffd1d1" stroke-linecap="round" stroke-width="1"/><path d="M12706.139,7712.639s-201.609-90.1-329.758-9.47S12124,7778.2,12124,7778.2" transform="translate(-12123.998 -7664.406)" fill="none" stroke="#ffd1d1" stroke-linecap="round" stroke-width="1"/><path d="M12706.139,7712.639s-201.609-90.1-329.758-9.47S12124,7778.2,12124,7778.2" transform="translate(-12123.998 -7661.406)" fill="none" stroke="#ffd1d1" stroke-linecap="round" stroke-width="1"/><path d="M12706.139,7711.639s-201.609-89.1-329.758-8.47S12124,7778.2,12124,7778.2" transform="translate(-12123.998 -7657.406)" fill="none" stroke="#ffd1d1" stroke-linecap="round" stroke-width="1"/><path d="M12706.139,7711.639s-201.609-89.1-329.758-8.47S12124,7778.2,12124,7778.2" transform="translate(-12123.998 -7654.406)" fill="none" stroke="#ffd1d1" stroke-linecap="round" stroke-width="1"/></g></g></svg>