<svg xmlns="http://www.w3.org/2000/svg" width="1282.834" height="695" viewBox="0 0 1282.834 695">
  <g id="ttcx" transform="translate(-9083.313 -7069)">
    <rect id="pexels-rashika-singhal-4400641" width="1282" height="695" transform="translate(9084 7069)" fill="#011f43"/>
    <path id="Path_2279" data-name="Path 2279" d="M10838.719,7898s-48.265-211.033,18-196.256S10838.719,7898,10838.719,7898Z" transform="translate(-1125.09 -134)" fill="#f7adad"/>
    <path id="Path_2280" data-name="Path 2280" d="M9.345,108.482S-17.233-7.729,19.257.408,9.345,108.482,9.345,108.482Z" transform="matrix(0.259, -0.966, 0.966, 0.259, 9422.635, 7615.265)" fill="#f7adad"/>
    <path id="Path_2281" data-name="Path 2281" d="M9.345,108.482S-17.233-7.729,19.257.408,9.345,108.482,9.345,108.482Z" transform="matrix(0.342, -0.94, 0.94, 0.342, 9155.211, 7542.315)" fill="#f7adad" opacity="0.561"/>
    <path id="Path_2282" data-name="Path 2282" d="M9.345,108.482S-17.233-7.729,19.257.408,9.345,108.482,9.345,108.482Z" transform="matrix(-0.174, -0.985, 0.985, -0.174, 9169.316, 7677.037)" fill="#f7adad" opacity="0.561"/>
    <path id="Path_2283" data-name="Path 2283" d="M9.345,108.482S-17.233-7.729,19.257.408,9.345,108.482,9.345,108.482Z" transform="matrix(0.719, -0.695, 0.695, 0.719, 9419.577, 7432.775)" fill="#f7adad" opacity="0.561"/>
    <path id="Path_2284" data-name="Path 2284" d="M9.345,108.482S-17.233-7.729,19.257.408,9.345,108.482,9.345,108.482Z" transform="translate(9676.749 7358.272) rotate(-9)" fill="#f7adad" opacity="0.561"/>
    <path id="Path_2285" data-name="Path 2285" d="M9.345,108.482S-17.233-7.729,19.257.408,9.345,108.482,9.345,108.482Z" transform="translate(9928.463 7385.648) rotate(21)" fill="#f7adad" opacity="0.561"/>
    <path id="Path_2286" data-name="Path 2286" d="M9.345,108.482S-17.233-7.729,19.257.408,9.345,108.482,9.345,108.482Z" transform="translate(10258.33 7487.323) rotate(53)" fill="#f7adad" opacity="0.561"/>
    <path id="Path_2287" data-name="Path 2287" d="M9.345,108.482S-17.233-7.729,19.257.408,9.345,108.482,9.345,108.482Z" transform="translate(10086.653 7612.803) rotate(87)" fill="#f7adad" opacity="0.561"/>
    <path id="Path_2288" data-name="Path 2288" d="M9.345,108.482S-17.233-7.729,19.257.408,9.345,108.482,9.345,108.482Z" transform="translate(9460.256 7534.522) rotate(-60)" fill="#f7adad"/>
    <path id="Path_2289" data-name="Path 2289" d="M9.345,108.482S-17.233-7.729,19.257.408,9.345,108.482,9.345,108.482Z" transform="translate(9595.336 7453.583) rotate(-30)" fill="#f7adad"/>
    <path id="Path_2290" data-name="Path 2290" d="M9.345,108.482S-17.233-7.729,19.257.408,9.345,108.482,9.345,108.482Z" transform="translate(9773.43 7437.003)" fill="#f7adad"/>
    <path id="Path_2291" data-name="Path 2291" d="M9.345,108.482S-17.233-7.729,19.257.408,9.345,108.482,9.345,108.482Z" transform="matrix(0.766, 0.643, -0.643, 0.766, 9950.599, 7484.007)" fill="#f7adad"/>
    <path id="Path_2292" data-name="Path 2292" d="M9.345,108.482S-17.233-7.729,19.257.408,9.345,108.482,9.345,108.482Z" transform="translate(10006.517 7563.101) rotate(62)" fill="#f7adad"/>
    <path id="Path_2293" data-name="Path 2293" d="M9.345,108.482S-17.233-7.729,19.257.408,9.345,108.482,9.345,108.482Z" transform="translate(10007.391 7654.31) rotate(99)" fill="#f7adad"/>
    <circle id="Ellipse_333" data-name="Ellipse 333" cx="15" cy="15" r="15" transform="translate(9719 7583)" fill="#fff"/>
    <circle id="Ellipse_334" data-name="Ellipse 334" cx="9" cy="9" r="9" transform="translate(9431 7595)" fill="#fff"/>
    <circle id="Ellipse_335" data-name="Ellipse 335" cx="9" cy="9" r="9" transform="matrix(0.996, 0.087, -0.087, 0.996, 9175.556, 7523.289)" fill="#fff" opacity="0.561"/>
    <circle id="Ellipse_336" data-name="Ellipse 336" cx="9" cy="9" r="9" transform="translate(9296.602 7653.041) rotate(-25)" fill="#fff" opacity="0.561"/>
    <circle id="Ellipse_337" data-name="Ellipse 337" cx="9" cy="9" r="9" transform="translate(9440.325 7422.266) rotate(31)" fill="#fff" opacity="0.561"/>
    <circle id="Ellipse_338" data-name="Ellipse 338" cx="9" cy="9" r="9" transform="matrix(0.407, 0.914, -0.914, 0.407, 9697.269, 7362.198)" fill="#fff" opacity="0.561"/>
    <circle id="Ellipse_339" data-name="Ellipse 339" cx="9" cy="9" r="9" transform="matrix(-0.105, 0.995, -0.995, -0.105, 9953.34, 7401.014)" fill="#fff" opacity="0.561"/>
    <circle id="Ellipse_340" data-name="Ellipse 340" cx="9" cy="9" r="9" transform="translate(10152.054 7507.297) rotate(128)" fill="#fff" opacity="0.561"/>
    <circle id="Ellipse_341" data-name="Ellipse 341" cx="9" cy="9" r="9" transform="translate(10095.912 7636.193) rotate(162)" fill="#fff" opacity="0.561"/>
    <circle id="Ellipse_342" data-name="Ellipse 342" cx="9" cy="9" r="9" transform="translate(9467 7518)" fill="#fff"/>
    <circle id="Ellipse_343" data-name="Ellipse 343" cx="9" cy="9" r="9" transform="translate(9604 7455)" fill="#fff"/>
    <circle id="Ellipse_344" data-name="Ellipse 344" cx="9" cy="9" r="9" transform="translate(9781 7444)" fill="#fff"/>
    <circle id="Ellipse_345" data-name="Ellipse 345" cx="9" cy="9" r="9" transform="translate(9958 7500)" fill="#fff"/>
    <circle id="Ellipse_346" data-name="Ellipse 346" cx="9" cy="9" r="9" transform="translate(10007 7577)" fill="#fff"/>
    <circle id="Ellipse_347" data-name="Ellipse 347" cx="9" cy="9" r="9" transform="translate(10003 7659)" fill="#fff"/>
    <g id="Group_1938" data-name="Group 1938" transform="translate(9084 7251.406)">
      <path id="Path_2294" data-name="Path 2294" d="M12124,7711.639s145.967-89.1,238.746-8.47,182.728,75.032,182.728,75.032" transform="translate(-12124 -7669.406)" fill="none" stroke="#f7adad" stroke-linecap="round" stroke-width="1"/>
      <path id="Path_2295" data-name="Path 2295" d="M12124,7711.639s145.967-89.1,238.746-8.47,182.728,75.032,182.728,75.032" transform="translate(-12124 -7666.406)" fill="none" stroke="#f7adad" stroke-linecap="round" stroke-width="1"/>
      <path id="Path_2296" data-name="Path 2296" d="M12124,7712.639s145.967-90.1,238.746-9.47,182.728,75.032,182.728,75.032" transform="translate(-12124 -7664.406)" fill="none" stroke="#f7adad" stroke-linecap="round" stroke-width="1"/>
      <path id="Path_2297" data-name="Path 2297" d="M12124,7712.639s145.967-90.1,238.746-9.47,182.728,75.032,182.728,75.032" transform="translate(-12124 -7661.406)" fill="none" stroke="#f7adad" stroke-linecap="round" stroke-width="1"/>
      <path id="Path_2298" data-name="Path 2298" d="M12124,7711.639s145.967-89.1,238.746-8.47,182.728,75.032,182.728,75.032" transform="translate(-12124 -7657.406)" fill="none" stroke="#f7adad" stroke-linecap="round" stroke-width="1"/>
      <path id="Path_2299" data-name="Path 2299" d="M12124,7711.639s145.967-89.1,238.746-8.47,182.728,75.032,182.728,75.032" transform="translate(-12124 -7654.406)" fill="none" stroke="#f7adad" stroke-linecap="round" stroke-width="1"/>
    </g>
    <g id="Group_1939" data-name="Group 1939" transform="translate(9083.859 7185.406)">
      <path id="Path_2294-2" data-name="Path 2294" d="M13405.7,7711.639s-443.883-89.1-726.027-8.47S12124,7778.2,12124,7778.2" transform="translate(-12124 -7669.406)" fill="none" stroke="#ffd1d1" stroke-linecap="round" stroke-width="1"/>
      <path id="Path_2295-2" data-name="Path 2295" d="M13405.7,7711.639s-443.883-89.1-726.027-8.47S12124,7778.2,12124,7778.2" transform="translate(-12124 -7666.406)" fill="none" stroke="#ffd1d1" stroke-linecap="round" stroke-width="1"/>
      <path id="Path_2296-2" data-name="Path 2296" d="M13405.7,7712.639s-443.883-90.1-726.027-9.47S12124,7778.2,12124,7778.2" transform="translate(-12124 -7664.406)" fill="none" stroke="#ffd1d1" stroke-linecap="round" stroke-width="1"/>
      <path id="Path_2297-2" data-name="Path 2297" d="M13405.7,7712.639s-443.883-90.1-726.027-9.47S12124,7778.2,12124,7778.2" transform="translate(-12124 -7661.406)" fill="none" stroke="#ffd1d1" stroke-linecap="round" stroke-width="1"/>
      <path id="Path_2298-2" data-name="Path 2298" d="M13405.7,7711.639s-443.883-89.1-726.027-8.47S12124,7778.2,12124,7778.2" transform="translate(-12124 -7657.406)" fill="none" stroke="#ffd1d1" stroke-linecap="round" stroke-width="1"/>
      <path id="Path_2299-2" data-name="Path 2299" d="M13405.7,7711.639s-443.883-89.1-726.027-8.47S12124,7778.2,12124,7778.2" transform="translate(-12124 -7654.406)" fill="none" stroke="#ffd1d1" stroke-linecap="round" stroke-width="1"/>
    </g>
  </g>
</svg>
