<svg id="Group_2303" data-name="Group 2303" xmlns="http://www.w3.org/2000/svg" width="57" height="57" viewBox="0 0 57 57">
  <path id="Subtraction_1" data-name="Subtraction 1" d="M28.5,57A28.508,28.508,0,0,1,17.406,2.24,28.507,28.507,0,0,1,51.732,45.013a28.581,28.581,0,0,1-13.466,10.27c3.524-7.371,5.659-13.633,6.345-18.614a21.233,21.233,0,0,0,.051-6.124,11.489,11.489,0,0,0-1.57-4.375,10.972,10.972,0,0,0-6.405-4.558,29.708,29.708,0,0,0-8.7-1.06h-.3l8.043,35.52A28.59,28.59,0,0,1,28.5,57ZM24.627,7.013C15.862,14.34,12.382,18.181,12.991,19.859c.288.794,1.5,1.148,3.932,1.148,1.3,0,2.867-.1,4.529-.2l.524-.032c1.816-.109,3.753-.217,5.715-.226L24.627,7.013Z" fill="#fd6c21"/>
</svg>
