<svg xmlns="http://www.w3.org/2000/svg" width="92" height="92" viewBox="0 0 92 92">
  <g id="Group_2326" data-name="Group 2326" transform="translate(-1646 -2593)">
    <circle id="Ellipse_372" data-name="Ellipse 372" cx="46" cy="46" r="46" transform="translate(1646 2593)" fill="rgba(255,255,255,0)"/>
    <path id="Icon_ionic-ios-arrow-round-forward" data-name="Icon ionic-ios-arrow-round-forward" d="M29.8,11.691a1.56,1.56,0,0,0-.012,2.2l7.259,7.271H9.415a1.552,1.552,0,0,0,0,3.1H37.031l-7.259,7.271a1.571,1.571,0,0,0,.012,2.2,1.546,1.546,0,0,0,2.185-.012l9.838-9.91h0a1.743,1.743,0,0,0,.322-.49,1.481,1.481,0,0,0,.119-.6,1.556,1.556,0,0,0-.442-1.086l-9.838-9.91A1.521,1.521,0,0,0,29.8,11.691Z" transform="translate(1667.284 2616.286)" fill="#fff"/>
  </g>
</svg>
